<?xml version="1.0" encoding="utf-8"?>
<!-- Generator: Adobe Illustrator 18.1.1, SVG Export Plug-In . SVG Version: 6.00 Build 0)  -->
<svg version="1.1" id="Layer_1" xmlns="http://www.w3.org/2000/svg" xmlns:xlink="http://www.w3.org/1999/xlink" x="0px" y="0px"
	 viewBox="-449 251 60 60" enable-background="new -449 251 60 60" xml:space="preserve">
<path d="M-404.4,300c-4.7,0-9-2.7-11-6.9l11.5-4.6c0.3-0.1,0.5-0.4,0.7-0.7c0.1-0.3,0.1-0.6,0-0.9l-2.6-6.4l-2.1-5.2
	c1.1-0.4,2.3-0.6,3.6-0.6c7,0.2,12.5,5.9,12.4,12.9C-392.1,294.4-397.6,299.8-404.4,300z M-438.4,286.5c-2.2-1-4.2-2.6-5.5-4.6
	l1-2.4l15.7,6.8c0,0.3,0.1,0.5,0.1,0.8c0.1,0.6,0.2,1.1,0.3,1.7c0.1,0.4,0.2,0.8,0.3,1.2c0.2,0.5,0.3,1.1,0.6,1.6
	c0.1,0.2,0.1,0.4,0.2,0.6L-438.4,286.5L-438.4,286.5z M-445.1,269.7c1.2-2.9,3.6-5.3,6.5-6.6l-0.6,1.4c-0.6,0.5-1.1,1.1-1.6,1.7
	c-0.3,0.3-0.6,0.6-0.8,0.9c-0.8,1-1.4,2.1-1.9,3.2c-0.5,1.1-0.8,2.3-1,3.6c-0.1,0.4,0,0.8,0,1.3c-0.1,0.8-0.1,1.6-0.1,2.4l-0.6,1.5
	C-446.5,276-446.4,272.7-445.1,269.7C-445.1,269.7-445.1,269.7-445.1,269.7z M-428.5,263l12.8,5.5c-0.2,0.1-0.4,0.2-0.6,0.2
	c-0.5,0.2-1,0.4-1.5,0.7c-0.9,0.4-1.7,0.9-2.4,1.5c-0.2,0.1-0.4,0.3-0.6,0.4l-15.8-6.8l1-2.4C-433.2,261.8-430.8,262.1-428.5,263z
	 M-442.2,274.2c0.1-1,0.4-2,0.8-3c0.4-0.9,0.9-1.8,1.5-2.6c0.2-0.3,0.4-0.5,0.7-0.7c0.4-0.4,0.7-0.8,1.2-1.2l4.1,1.8l12.2,5.2
	l2.4,5.9c0,0,0,0.1,0,0.1l0.6,1.4l-1.9,0.8h0l-5.3,2.1l-16.3-7c0-0.6,0-1.2,0-1.8C-442.2,274.9-442.2,274.6-442.2,274.2
	C-442.2,274.2-442.2,274.2-442.2,274.2z M-410.7,274.8l2.4,6c-1,1.1-1.9,2.4-2.5,3.8c-0.6,1.4-0.9,2.9-1,4.5l-10.3,4.2
	c-0.2-0.2-0.3-0.4-0.4-0.7c-0.1-0.2-0.3-0.4-0.4-0.6c-0.2-0.4-0.4-0.8-0.5-1.1c-0.1-0.2-0.2-0.4-0.3-0.7c-0.2-0.4-0.3-0.8-0.4-1.3
	c-0.1-0.2-0.1-0.4-0.2-0.6c-0.2-0.6-0.3-1.3-0.3-2l8-3.2c0.3-0.1,0.5-0.4,0.7-0.6c0.1-0.3,0.1-0.6,0-0.9l-3.3-8.1
	c0.5-0.4,1.1-0.8,1.6-1.1c0.2-0.1,0.4-0.2,0.6-0.3c0.4-0.2,0.8-0.4,1.2-0.6c0.2-0.1,0.5-0.2,0.7-0.3c0.4-0.1,0.7-0.3,1.1-0.4
	c0.3-0.1,0.5-0.1,0.8-0.2c0.2,0,0.5-0.1,0.7-0.1l1.4,3.6L-410.7,274.8L-410.7,274.8z M-404.4,272.2c-1.5,0-3,0.3-4.5,0.8l-1.8-4.5
	c0-0.1-0.1-0.1-0.2-0.2c-0.1-0.2-0.2-0.3-0.4-0.4c0,0,0,0-0.1-0.1l-16.3-7c-2.9-1.2-6.1-1.5-9.1-0.9c0,0,0,0,0,0
	c-4.8,1-8.7,4.3-10.6,8.8c-1.9,4.5-1.5,9.7,1.1,13.9c0,0,0.1,0.1,0.1,0.1c1.6,2.7,4,4.7,6.9,6l16.1,6.9c0.2,0.1,0.4,0.2,0.6,0.2
	c0.2,0,0.3,0,0.4-0.1l4.4-1.8c2.5,5.1,7.6,8.4,13.3,8.4c8.3-0.1,15-7,14.9-15.3C-389.6,278.9-396.2,272.3-404.4,272.2z"/>
</svg>
