<?xml version="1.0" encoding="utf-8"?>
<!-- Generator: Adobe Illustrator 18.1.1, SVG Export Plug-In . SVG Version: 6.00 Build 0)  -->
<svg version="1.1" id="Layer_1" xmlns="http://www.w3.org/2000/svg" xmlns:xlink="http://www.w3.org/1999/xlink" x="0px" y="0px"
	 viewBox="-449 251 60 60" enable-background="new -449 251 60 60" xml:space="preserve">
<g>
	<path id="XMLID_27_" fill="#019CDE" d="M-433.4,285.7c0,4.2-3.1,7.5-6.8,7.5c-1.9,0-3.3-0.6-4.2-1.7v0.6c0,0.4-0.3,0.7-0.7,0.7
		h-2.8c-0.4,0-0.7-0.3-0.7-0.7v-22.6c0-0.4,0.3-0.7,0.7-0.7l0,0c2,0,3.6,2,3.6,4v7.1c1-1.1,2.3-1.7,4.2-1.7
		C-436.5,278.2-433.4,281.5-433.4,285.7z M-437.7,285.7c0-2.1-1.4-3.5-3.4-3.5c-2,0-3.4,1.3-3.4,3.5c0,2.1,1.4,3.5,3.4,3.5
		C-439.1,289.2-437.7,287.8-437.7,285.7z"/>
	<path id="XMLID_18_" fill="#019CDE" d="M-417.8,285.7c0,0.4,0,0.7-0.1,1.1c-0.1,0.5-0.3,0.7-0.8,0.7h-3.5h-6
		c0.5,1.7,1.8,2.4,3.3,2.4c0.8,0,1.6-0.3,2.1-0.7c0.3-0.2,0.5-0.4,0.9-0.4l2.7,0c0.5,0,0.8,0.3,0.6,0.8c-1.1,2.5-3.4,3.7-6.4,3.7
		c-4.7,0-7.7-3.3-7.7-7.5s3.1-7.5,7.6-7.5C-420.8,278.2-417.8,281.4-417.8,285.7z M-422,284.2c-0.4-1.6-1.7-2.2-3-2.2
		c-1.6,0-2.7,0.8-3.1,2.2H-422z"/>
	<path id="XMLID_15_" fill="#019CDE" d="M-401.7,269.5v22.6c0,0.4-0.3,0.7-0.7,0.7h-2.8c-0.4,0-0.7-0.3-0.7-0.7v-0.6
		c-1,1.1-2.3,1.7-4.2,1.7c-3.7,0-6.8-3.3-6.8-7.5s3.1-7.5,6.8-7.5c1.9,0,3.3,0.6,4.2,1.7v-7.1c0-2,1.6-4,3.6-4l0,0
		C-402,268.8-401.7,269.1-401.7,269.5z M-405.9,285.7c0-2.1-1.4-3.5-3.4-3.5c-2,0-3.4,1.3-3.4,3.5c0,2.1,1.4,3.5,3.4,3.5
		C-407.4,289.2-405.9,287.8-405.9,285.7z"/>
	<path id="XMLID_9_" fill="#019CDE" d="M-389.6,288.5c0,3.3-2.2,4.7-5.4,4.7c-2.9,0-5.5-1.3-5.9-4.3c-0.1-0.5,0.2-0.7,0.7-0.7h2.8
		c0.4,0,0.6,0.2,0.8,0.6c0.2,0.5,0.8,0.8,1.6,0.8c1.2,0,1.7-0.4,1.7-1c0-2-7.4-0.2-7.4-5.7c0-3.2,2.8-4.7,5.8-4.7
		c2.6,0,5.2,1.3,5.6,4.3c0.1,0.5-0.2,0.7-0.7,0.7h-2.8c-0.4,0-0.6-0.2-0.8-0.6c-0.2-0.5-0.7-0.7-1.3-0.7c-1.1,0-1.5,0.4-1.5,1
		C-396.5,284.9-389.6,283-389.6,288.5z"/>
	<path id="XMLID_8_" fill="#7BCBED" d="M-407.9,276.1c-0.2-3.3-3.2-4.9-6.3-4.9c-1.2,0-2.3,0.2-3.2,0.6c-0.9,0.4-1.6,1.1-2.1,2
		c-0.2-0.4-0.4-0.7-0.7-1c-2.4-2.7-5.9-3.4-10.2-3.4c-6.1,0-11.9,1.9-12.2,6.7c0,0,0,0.6,0.4,0.6h22.2h1h10.2h0.4
		C-408.3,276.6-407.9,276.5-407.9,276.1z"/>
	<g id="XMLID_3_">
		<path id="XMLID_6_" fill="#FE746C" d="M-399.7,276v-0.8c0-0.1,0-0.2,0.1-0.3l2.1-2.3c0.4-0.4,0.7-0.9,0.7-1.4
			c0-0.5-0.2-0.8-0.7-0.8c-0.4,0-0.6,0.2-0.7,0.6c0,0.2-0.1,0.3-0.2,0.3h-1.1c-0.2,0-0.2-0.1-0.2-0.3c0.1-1.5,1.2-2.2,2.2-2.2
			c1.1,0,2.2,0.7,2.2,2.4c0,0.8-0.5,1.6-1,2.2l-1.2,1.2h2c0.2,0,0.2,0.1,0.2,0.3v1.1c0,0.2-0.1,0.3-0.2,0.3h-4.1
			C-399.6,276.3-399.7,276.2-399.7,276z"/>
		<path id="XMLID_4_" fill="#FE746C" d="M-389.3,273.8v1c0,0.2-0.1,0.3-0.2,0.3h-0.4v0.9c0,0.2-0.1,0.3-0.2,0.3h-1.1
			c-0.2,0-0.2-0.1-0.2-0.3v-0.9h-3c-0.2,0-0.2-0.1-0.2-0.3v-1.1c0-0.1,0-0.2,0.1-0.3l2-4.3c0.1-0.1,0.1-0.2,0.3-0.2h1.2
			c0.2,0,0.3,0.1,0.2,0.3l-2,4.4h1.5v-1.3c0-0.2,0.1-0.3,0.2-0.3h1.1c0.2,0,0.2,0.1,0.2,0.3v1.3h0.4
			C-389.3,273.5-389.3,273.6-389.3,273.8z"/>
	</g>
</g>
</svg>
